<?xml version="1.0" encoding="UTF-8"?>
<svg width="512px" height="512px" viewBox="0 0 512 512" version="1.1" xmlns="http://www.w3.org/2000/svg" xmlns:xlink="http://www.w3.org/1999/xlink">
    <g id="Page-1" stroke="none" stroke-width="1" fill="none" fill-rule="evenodd">
        <g id="mask-icon" fill-rule="nonzero">
            <rect id="Rectangle" fill="#000000" x="0" y="0" width="512" height="512"></rect>
            <path d="M351.88,174.445625 C349.08,166.59125 341.24,161 332,161 L178,161 C168.76,161 161.06,166.59125 158.12,174.445625 L130.54,249.9275 C129.56,252.723125 129,255.651875 129,258.71375 L129,354.03125 C129,365.080625 138.38,374 150,374 C161.62,374 171,365.080625 171,354.03125 L171,347.375 L339,347.375 L339,354.03125 C339,364.9475 348.38,374 360,374 C371.48,374 381,365.080625 381,354.03125 L381,258.71375 C381,255.785 380.44,252.723125 379.46,249.9275 L351.88,174.445625 Z M178,307.4375 C166.38,307.4375 157,298.518125 157,287.46875 C157,276.419375 166.38,267.5 178,267.5 C189.62,267.5 199,276.419375 199,287.46875 C199,298.518125 189.62,307.4375 178,307.4375 Z M332,307.4375 C320.38,307.4375 311,298.518125 311,287.46875 C311,276.419375 320.38,267.5 332,267.5 C343.62,267.5 353,276.419375 353,287.46875 C353,298.518125 343.62,307.4375 332,307.4375 Z M157,240.875 L174.78,190.02125 C176.74,184.69625 182.06,180.96875 188.08,180.96875 L321.92,180.96875 C327.94,180.96875 333.26,184.69625 335.22,190.02125 L353,240.875 L157,240.875 Z" id="Shape" fill="#FFFFFF"></path>
        </g>
    </g>
</svg>